<?xml version="1.0" encoding="UTF-8"?>
<svg xmlns="http://www.w3.org/2000/svg" width="57.803" height="61.197" viewBox="0 0 57.803 61.197">
  <g id="Group_300" data-name="Group 300" transform="translate(-15020.02 -2104)">
    <path id="Path_173" data-name="Path 173" d="M10.862,45.114A27.17,27.17,0,0,1,50.55,10.066" transform="translate(15013.905 2100)" fill="rgba(0,0,0,0)"></path>
    <path id="Path_173_-_Outline" data-name="Path 173 - Outline" d="M9.983,45.591A28.17,28.17,0,0,1,51.132,9.253l-1.165,1.626A26.171,26.171,0,0,0,11.74,44.636Z" transform="translate(15013.905 2100)" fill="#fff"></path>
    <path id="Path_174" data-name="Path 174" d="M274.27,73.981a27.2,27.2,0,0,1,.383,27.628" transform="translate(14797.584 2044.047)" fill="rgba(0,0,0,0)"></path>
    <path id="Path_174_-_Outline" data-name="Path 174 - Outline" d="M275.52,102.106l-1.735-.995a26.2,26.2,0,0,0-.369-26.609l1.707-1.042a28.2,28.2,0,0,1,.4,28.646Z" transform="translate(14797.584 2044.047)" fill="#fff"></path>
    <path id="Path_175" data-name="Path 175" d="M64.865,87.017A17.909,17.909,0,1,1,85.234,57.583" transform="translate(14974.146 2060.241)" fill="rgba(0,0,0,0)"></path>
    <path id="Path_175_-_Outline" data-name="Path 175 - Outline" d="M64.326,87.86A18.894,18.894,0,0,1,55.6,71.924,18.909,18.909,0,0,1,85.834,56.783l-1.2,1.6A16.911,16.911,0,0,0,59.741,80.167,17.035,17.035,0,0,0,65.4,86.175Z" transform="translate(14974.146 2060.241)" fill="#fff"></path>
    <path id="Path_176" data-name="Path 176" d="M203.092,100.589a17.919,17.919,0,0,1-6.979,24.91" transform="translate(14860.98 2022.464)" fill="rgba(0,0,0,0)"></path>
    <path id="Path_176_-_Outline" data-name="Path 176 - Outline" d="M196.585,126.381l-.944-1.763a16.919,16.919,0,0,0,6.591-23.519l1.721-1.019a18.919,18.919,0,0,1-7.367,26.3Z" transform="translate(14860.98 2022.464)" fill="#fff"></path>
    <path id="Path_177" data-name="Path 177" d="M123.194,109.959a8.431,8.431,0,1,1-5.248-5.344" transform="translate(14933.481 2019.576)" fill="rgba(0,0,0,0)"></path>
    <path id="Path_177_-_Outline" data-name="Path 177 - Outline" d="M115.172,122.029a9.44,9.44,0,1,1,3.1-18.358l-.657,1.889a7.431,7.431,0,1,0,4.626,4.711l1.9-.622a9.447,9.447,0,0,1-8.973,12.381Z" transform="translate(14933.481 2019.576)" fill="#fff"></path>
    <path id="Line_71" data-name="Line 71" d="M.665,18.221-.665,16.728,18.945-.747,20.275.747Z" transform="translate(15048.652 2114.124)" fill="#fff"></path>
    <path id="Path_178" data-name="Path 178" d="M257.863,22.233,254.241,22l-.236-3.621,3.67-3.67.236,3.621,3.621.236Z" transform="translate(14814.021 2092.127)" fill="rgba(0,0,0,0)"></path>
    <path id="Path_178_-_Outline" data-name="Path 178 - Outline" d="M258.25,23.261l-4.949-.323-.322-4.949,5.551-5.551.323,4.949,4.949.323Zm-3.068-2.2,2.294.15,1.788-1.788-2.294-.15-.15-2.294-1.788,1.788Z" transform="translate(14814.021 2092.127)" fill="#fff"></path>
    <path id="Path_179" data-name="Path 179" d="M106.867,303.595c.7-3.486,3.777-4.448,7.469-4.448s6.753.947,7.463,4.418" transform="translate(14933.371 1861.405)" fill="rgba(0,0,0,0)"></path>
    <path id="Path_179_-_Outline" data-name="Path 179 - Outline" d="M107.847,303.791l-1.961-.393a5.8,5.8,0,0,1,3.136-4.224,14.293,14.293,0,0,1,10.613-.011,5.787,5.787,0,0,1,3.143,4.2l-1.959.4a3.826,3.826,0,0,0-2.091-2.82,12.444,12.444,0,0,0-8.792.008A3.834,3.834,0,0,0,107.847,303.791Z" transform="translate(14933.371 1861.405)" fill="#fff"></path>
    <path id="Path_180" data-name="Path 180" d="M131.423,233.3a4.545,4.545,0,1,1-4.545-4.545A4.545,4.545,0,0,1,131.423,233.3Z" transform="translate(14920.826 1918.503)" fill="rgba(0,0,0,0)"></path>
    <path id="Path_180_-_Outline" data-name="Path 180 - Outline" d="M126.878,227.755a5.545,5.545,0,1,1-5.545,5.545A5.551,5.551,0,0,1,126.878,227.755Zm0,9.091a3.545,3.545,0,1,0-3.545-3.545A3.549,3.549,0,0,0,126.878,236.846Z" transform="translate(14920.826 1918.503)" fill="#fff"></path>
    <path id="Path_181" data-name="Path 181" d="M208.735,303.595c.7-3.486,3.777-4.448,7.469-4.448s6.753.947,7.463,4.418" transform="translate(14850.742 1861.405)" fill="rgba(0,0,0,0)"></path>
    <path id="Path_181_-_Outline" data-name="Path 181 - Outline" d="M209.715,303.791l-1.961-.393a5.8,5.8,0,0,1,3.136-4.224,14.293,14.293,0,0,1,10.613-.011,5.787,5.787,0,0,1,3.143,4.2l-1.959.4a3.826,3.826,0,0,0-2.091-2.82,12.444,12.444,0,0,0-8.792.008A3.834,3.834,0,0,0,209.715,303.791Z" transform="translate(14850.742 1861.405)" fill="#fff"></path>
    <path id="Path_182" data-name="Path 182" d="M233.291,233.3a4.545,4.545,0,1,1-4.545-4.545A4.545,4.545,0,0,1,233.291,233.3Z" transform="translate(14838.197 1918.503)" fill="rgba(0,0,0,0)"></path>
    <path id="Path_182_-_Outline" data-name="Path 182 - Outline" d="M228.746,227.755A5.545,5.545,0,1,1,223.2,233.3,5.551,5.551,0,0,1,228.746,227.755Zm0,9.091A3.545,3.545,0,1,0,225.2,233.3,3.549,3.549,0,0,0,228.746,236.846Z" transform="translate(14838.197 1918.503)" fill="#fff"></path>
    <path id="Path_183" data-name="Path 183" d="M5,303.595c.7-3.486,3.777-4.448,7.469-4.448s6.753.947,7.463,4.418" transform="translate(15016 1861.405)" fill="rgba(0,0,0,0)"></path>
    <path id="Path_183_-_Outline" data-name="Path 183 - Outline" d="M5.98,303.791,4.02,303.4a5.8,5.8,0,0,1,3.136-4.224,11.588,11.588,0,0,1,5.313-1.027,11.629,11.629,0,0,1,5.3,1.016,5.787,5.787,0,0,1,3.143,4.2l-1.959.4a3.826,3.826,0,0,0-2.091-2.82,9.753,9.753,0,0,0-4.392-.8,9.71,9.71,0,0,0-4.4.806A3.834,3.834,0,0,0,5.98,303.791Z" transform="translate(15016 1861.405)" fill="#fff"></path>
    <path id="Path_184" data-name="Path 184" d="M29.556,233.3a4.545,4.545,0,1,1-4.545-4.545A4.545,4.545,0,0,1,29.556,233.3Z" transform="translate(15003.455 1918.503)" fill="rgba(0,0,0,0)"></path>
    <path id="Path_184_-_Outline" data-name="Path 184 - Outline" d="M25.011,227.755a5.545,5.545,0,1,1-5.545,5.545A5.552,5.552,0,0,1,25.011,227.755Zm0,9.091a3.545,3.545,0,1,0-3.545-3.545A3.549,3.549,0,0,0,25.011,236.846Z" transform="translate(15003.455 1918.503)" fill="#fff"></path>
  </g>
</svg>
