<?xml version="1.0" encoding="UTF-8"?>
<svg xmlns="http://www.w3.org/2000/svg" width="67.709" height="62" viewBox="0 0 67.709 62">
  <g id="Group_293" data-name="Group 293" transform="translate(-15070.002 -2139.003)">
    <circle id="Ellipse_8" data-name="Ellipse 8" cx="20" cy="20" r="20" transform="translate(15083.856 2140.003)" fill="rgba(0,0,0,0)"></circle>
    <path id="Ellipse_8_-_Outline" data-name="Ellipse 8 - Outline" d="M20-1A20.994,20.994,0,0,1,34.849,34.849,21,21,0,1,1,11.826.651,20.869,20.869,0,0,1,20-1Zm0,40A19.005,19.005,0,0,0,27.4,2.493,19.005,19.005,0,0,0,12.6,37.507,18.88,18.88,0,0,0,20,39Z" transform="translate(15083.856 2140.003)" fill="#fff"></path>
    <circle id="Ellipse_9" data-name="Ellipse 9" cx="20" cy="20" r="20" transform="translate(15071.002 2160.002)" fill="rgba(0,0,0,0)"></circle>
    <path id="Ellipse_9_-_Outline" data-name="Ellipse 9 - Outline" d="M20-1A20.994,20.994,0,0,1,34.849,34.849,21,21,0,1,1,11.826.651,20.869,20.869,0,0,1,20-1Zm0,40A19.005,19.005,0,0,0,27.4,2.493,19.005,19.005,0,0,0,12.6,37.507,18.88,18.88,0,0,0,20,39Z" transform="translate(15071.002 2160.002)" fill="#fff"></path>
    <circle id="Ellipse_10" data-name="Ellipse 10" cx="20" cy="20" r="20" transform="translate(15096.711 2160.002)" fill="rgba(0,0,0,0)"></circle>
    <path id="Ellipse_10_-_Outline" data-name="Ellipse 10 - Outline" d="M20-1A20.994,20.994,0,0,1,34.849,34.849,21,21,0,1,1,11.826.651,20.869,20.869,0,0,1,20-1Zm0,40A19.005,19.005,0,0,0,27.4,2.493,19.005,19.005,0,0,0,12.6,37.507,18.88,18.88,0,0,0,20,39Z" transform="translate(15096.711 2160.002)" fill="#fff"></path>
  </g>
</svg>
