<?xml version="1.0" encoding="UTF-8"?>
<svg xmlns="http://www.w3.org/2000/svg" width="63.408" height="62" viewBox="0 0 63.408 62">
  <g id="Group_296" data-name="Group 296" transform="translate(-15011 -2118)">
    <path id="Path_157" data-name="Path 157" d="M195.281,101.066c-1.649,2.752-4.434,4.115-6.222,3.044s-1.9-4.171-.254-6.924,4.436-4.115,6.223-3.044S196.93,98.313,195.281,101.066Z" transform="translate(14850.29 2037.826)" fill="rgba(0,0,0,0)"></path>
    <path id="Path_157_-_Outline" data-name="Path 157 - Outline" d="M190.435,105.476a3.623,3.623,0,0,1-1.89-.508,4.227,4.227,0,0,1-1.9-3.653,8.618,8.618,0,0,1,1.3-4.643c1.417-2.366,3.657-3.9,5.705-3.9a3.622,3.622,0,0,1,1.889.507,4.226,4.226,0,0,1,1.9,3.653,8.62,8.62,0,0,1-1.3,4.643C194.721,103.946,192.483,105.476,190.435,105.476Zm3.218-10.7c-1.115,0-2.78.9-3.99,2.923a6.7,6.7,0,0,0-1.021,3.542,2.412,2.412,0,0,0,.931,2.01,1.653,1.653,0,0,0,.862.223c1.114,0,2.779-.9,3.988-2.923a6.7,6.7,0,0,0,1.021-3.542,2.412,2.412,0,0,0-.93-2.01A1.651,1.651,0,0,0,193.653,94.777Z" transform="translate(14850.29 2037.826)" fill="#fff"></path>
    <path id="Path_158" data-name="Path 158" d="M161.338,58.348l-1.279,7.5c-.3,1.694.443,2.833,1.493,2.968,5.645.725,9.009-10.956,1.045-15.366-4.763-2.637-11.775-.714-14.993,4.894s-1.724,12.511,3.338,15.416a10.4,10.4,0,0,0,10.688-.418" transform="translate(14886.096 2073.429)" fill="rgba(0,0,0,0)"></path>
    <path id="Path_158_-_Outline" data-name="Path 158 - Outline" d="M155.808,76.043a10.75,10.75,0,0,1-5.363-1.416,11,11,0,0,1-5.254-7.35,13.3,13.3,0,0,1,1.546-9.431,13.065,13.065,0,0,1,7.489-6,11.406,11.406,0,0,1,8.856.725,9.849,9.849,0,0,1,4.74,5.7,10.744,10.744,0,0,1-.044,6.543,8.255,8.255,0,0,1-2.362,3.721,5.022,5.022,0,0,1-3.991,1.27,2.619,2.619,0,0,1-1.783-1.066,3.969,3.969,0,0,1-.568-3.066l1.278-7.5,1.972.336-1.279,7.5a2.068,2.068,0,0,0,.208,1.54.622.622,0,0,0,.427.269,3.036,3.036,0,0,0,2.431-.8,6.358,6.358,0,0,0,1.766-2.828,8.728,8.728,0,0,0,.039-5.316,7.884,7.884,0,0,0-3.8-4.554,9.4,9.4,0,0,0-7.3-.564,11.072,11.072,0,0,0-6.346,5.081c-2.939,5.121-1.607,11.425,2.969,14.051a8.786,8.786,0,0,0,4.812,1.14,10.246,10.246,0,0,0,4.853-1.542l1.05,1.7a12.25,12.25,0,0,1-5.806,1.837Q156.079,76.043,155.808,76.043Z" transform="translate(14886.096 2073.429)" fill="#fff"></path>
    <path id="Path_159" data-name="Path 159" d="M7.688,137.216,38.012,160.3l30.383-23.13" transform="translate(15004.694 2000.594)" fill="rgba(0,0,0,0)"></path>
    <path id="Path_159_-_Outline" data-name="Path 159 - Outline" d="M38.012,161.556,7.082,138.012l1.211-1.591,29.718,22.622,29.777-22.669L69,137.965Z" transform="translate(15004.694 2000.594)" fill="#fff"></path>
    <path id="Line_61" data-name="Line 61" d="M17.3,19.26-.718.7.718-.7,18.731,17.867Z" transform="translate(15054.296 2159.461)" fill="#fff"></path>
    <path id="Line_62" data-name="Line 62" d="M.717,19.24-.717,17.847,17.29-.7,18.725.7Z" transform="translate(15013.099 2159.461)" fill="#fff"></path>
    <path id="Path_160" data-name="Path 160" d="M62.017,111.126l4.391,3.39v39.331A2.212,2.212,0,0,1,64.2,156.06H7.212A2.212,2.212,0,0,1,5,153.848V114.516l4.362-3.369" transform="translate(15007 2022.94)" fill="rgba(0,0,0,0)"></path>
    <path id="Path_160_-_Outline" data-name="Path 160 - Outline" d="M64.2,157.06H7.212A3.216,3.216,0,0,1,4,153.848V114.025l4.75-3.669,1.222,1.583L6,115.007v38.84a1.214,1.214,0,0,0,1.212,1.212H64.2a1.213,1.213,0,0,0,1.212-1.212v-38.84l-4-3.09,1.222-1.583,4.78,3.691v39.823A3.216,3.216,0,0,1,64.2,157.06Z" transform="translate(15007 2022.94)" fill="#fff"></path>
    <path id="Path_161" data-name="Path 161" d="M70.142,25.215V5h42.913V25.217" transform="translate(14951.105 2114)" fill="rgba(0,0,0,0)"></path>
    <path id="Path_161_-_Outline" data-name="Path 161 - Outline" d="M114.054,25.217h-2V6H71.142V25.215h-2V4h44.913Z" transform="translate(14951.105 2114)" fill="#fff"></path>
  </g>
</svg>
