<?xml version="1.0" encoding="UTF-8"?>
<svg xmlns="http://www.w3.org/2000/svg" width="62.219" height="62" viewBox="0 0 62.219 62">
  <g id="Group_297" data-name="Group 297" transform="translate(-15054 -2228)">
    <path id="Path_162" data-name="Path 162" d="M120.759,112.926h16.288a5.754,5.754,0,0,1,5.754,5.754v17.6a5.752,5.752,0,0,1-5.754,5.751h-17.6a5.752,5.752,0,0,1-5.754-5.751V122.75" transform="translate(14972.418 2146.969)" fill="rgba(0,0,0,0)"></path>
    <path id="Path_162_-_Outline" data-name="Path 162 - Outline" d="M137.047,143.032h-17.6a6.76,6.76,0,0,1-6.754-6.751V122.75h2v13.531a4.758,4.758,0,0,0,4.754,4.751h17.6a4.758,4.758,0,0,0,4.754-4.751v-17.6a4.759,4.759,0,0,0-4.754-4.754H120.759v-2h16.288a6.762,6.762,0,0,1,6.754,6.754v17.6A6.76,6.76,0,0,1,137.047,143.032Z" transform="translate(14972.418 2146.969)" fill="#fff"></path>
    <path id="Path_163" data-name="Path 163" d="M74.437,149.926v9.712a5.009,5.009,0,0,1-5.009,5.006h-2.3" transform="translate(15005.894 2120.367)" fill="rgba(0,0,0,0)"></path>
    <path id="Path_163_-_Outline" data-name="Path 163 - Outline" d="M69.428,165.644h-2.3v-2h2.3a4.012,4.012,0,0,0,4.009-4.006v-9.712h2v9.712A6.015,6.015,0,0,1,69.428,165.644Z" transform="translate(15005.894 2120.367)" fill="#fff"></path>
    <path id="Path_164" data-name="Path 164" d="M10.252,137.505H8.006A5.006,5.006,0,0,1,3,132.5V117.184a5.006,5.006,0,0,1,5.006-5.006H18.081" transform="translate(15052 2147.506)" fill="rgba(0,0,0,0)"></path>
    <path id="Path_164_-_Outline" data-name="Path 164 - Outline" d="M10.252,138.505H8.006A6.013,6.013,0,0,1,2,132.5V117.184a6.013,6.013,0,0,1,6.006-6.006H18.081v2H8.006A4.011,4.011,0,0,0,4,117.184V132.5a4.011,4.011,0,0,0,4.006,4.006h2.246Z" transform="translate(15052 2147.506)" fill="#fff"></path>
    <path id="Line_63" data-name="Line 63" d="M.033,1H0V-1H.033Z" transform="translate(15067.596 2285.012)" fill="#fff"></path>
    <path id="Path_165" data-name="Path 165" d="M128.623,28.328h4.647a5.006,5.006,0,0,0,5.007-5V8.007A5.008,5.008,0,0,0,133.27,3H117.952a5.008,5.008,0,0,0-5.006,5.006v5.208" transform="translate(14972.954 2225.999)" fill="rgba(0,0,0,0)"></path>
    <path id="Path_165_-_Outline" data-name="Path 165 - Outline" d="M133.27,29.328h-4.647v-2h4.647a4.009,4.009,0,0,0,4.007-4V8.007A4.011,4.011,0,0,0,133.27,4H117.952a4.011,4.011,0,0,0-4.006,4.006v5.208h-2V8.007A6.013,6.013,0,0,1,117.952,2H133.27a6.013,6.013,0,0,1,6.007,6.006V23.325A6.012,6.012,0,0,1,133.27,29.328Z" transform="translate(14972.954 2225.999)" fill="#fff"></path>
    <path id="Path_166" data-name="Path 166" d="M28.327,21.544V8.006a5.006,5.006,0,0,0-5-5.006H8.006A5.008,5.008,0,0,0,3,8.006V23.324a5.006,5.006,0,0,0,5.006,5H18.081" transform="translate(15052 2226)" fill="rgba(0,0,0,0)"></path>
    <path id="Path_166_-_Outline" data-name="Path 166 - Outline" d="M18.081,29.327H8.006a6.012,6.012,0,0,1-6.006-6V8.006A6.013,6.013,0,0,1,8.006,2H23.324a6.012,6.012,0,0,1,6,6.006V21.544h-2V8.006a4.01,4.01,0,0,0-4-4.006H8.006A4.011,4.011,0,0,0,4,8.006V23.324a4.009,4.009,0,0,0,4.006,4H18.081Z" transform="translate(15052 2226)" fill="#fff"></path>
    <path id="Path_167" data-name="Path 167" d="M73.044,63.894A11.424,11.424,0,0,0,84.468,52.47,11.424,11.424,0,0,0,95.892,63.894,11.424,11.424,0,0,0,84.468,75.318,11.424,11.424,0,0,0,73.044,63.894Z" transform="translate(15001.642 2190.433)" fill="rgba(0,0,0,0)"></path>
    <path id="Path_167_-_Outline" data-name="Path 167 - Outline" d="M83.468,52.47h2A10.436,10.436,0,0,0,95.892,62.894v2A10.436,10.436,0,0,0,85.468,75.318h-2A10.436,10.436,0,0,0,73.044,64.894v-2A10.436,10.436,0,0,0,83.468,52.47Zm7.524,11.424a12.519,12.519,0,0,1-6.524-6.523,12.519,12.519,0,0,1-6.523,6.523,12.519,12.519,0,0,1,6.523,6.523,12.519,12.519,0,0,1,6.524-6.523Z" transform="translate(15001.642 2190.433)" fill="#fff"></path>
    <path id="Path_168" data-name="Path 168" d="M56.581,123.74a7.545,7.545,0,0,0-6.435-6.435,7.545,7.545,0,0,0,6.435-6.435,7.545,7.545,0,0,0,6.435,6.435A7.545,7.545,0,0,0,56.581,123.74Z" transform="translate(15018.104 2148.447)" fill="rgba(0,0,0,0)"></path>
    <path id="Path_168_-_Outline" data-name="Path 168 - Outline" d="M57.572,123.875H55.591a6.552,6.552,0,0,0-5.581-5.58v-1.981a6.551,6.551,0,0,0,5.581-5.58h1.981a6.551,6.551,0,0,0,5.581,5.58v1.981A6.552,6.552,0,0,0,57.572,123.875ZM53.249,117.3a8.6,8.6,0,0,1,3.333,3.331,8.6,8.6,0,0,1,3.333-3.331,8.6,8.6,0,0,1-3.333-3.331A8.6,8.6,0,0,1,53.249,117.3Z" transform="translate(15018.104 2148.447)" fill="#fff"></path>
  </g>
</svg>
