<?xml version="1.0" encoding="UTF-8"?>
<svg xmlns="http://www.w3.org/2000/svg" width="62" height="61.999" viewBox="0 0 62 61.999">
  <g id="Group_295" data-name="Group 295" transform="translate(-15030.003 -2153.003)">
    <path id="Path_148" data-name="Path 148" d="M93.453,82.652a14.7,14.7,0,0,1-1.6,3.861l2.884,3.814-4.331,4.34L86.6,91.773a14.7,14.7,0,0,1-3.861,1.6l-.648,4.678-.009.056v.009H75.943l-.657-4.744a14.7,14.7,0,0,1-3.861-1.6l-3.814,2.893-4.34-4.34,2.893-3.814a14.7,14.7,0,0,1-1.6-3.861l-4.744-.658V75.86h.009l.056-.009,4.678-.648a14.7,14.7,0,0,1,1.6-3.861l-2.893-3.814,4.34-4.331,3.814,2.884a14.7,14.7,0,0,1,3.861-1.6l.657-4.744h6.134l.657,4.744a14.7,14.7,0,0,1,3.861,1.6L90.41,63.2l4.331,4.331-2.884,3.814a14.69,14.69,0,0,1,1.6,3.861l4.744.658v6.134Z" transform="translate(14981.997 2105.063)" fill="rgba(0,0,0,0)"></path>
    <path id="Path_148_-_Outline" data-name="Path 148 - Outline" d="M83.077,99.114H75.072l-.687-4.956a15.7,15.7,0,0,1-2.879-1.192L67.52,95.99l-5.573-5.573,3.024-3.986a15.7,15.7,0,0,1-1.192-2.879l-4.956-.687V74.86h.93l4.026-.558a15.7,15.7,0,0,1,1.192-2.879l-3.025-3.987,5.574-5.562,3.985,3.013a15.7,15.7,0,0,1,2.88-1.192l.687-4.956h7.876l.687,4.956a15.694,15.694,0,0,1,2.88,1.192L90.5,61.874l5.562,5.562-3.014,3.986a15.686,15.686,0,0,1,1.192,2.88l4.956.687v7.876l-4.956.687a15.692,15.692,0,0,1-1.192,2.88l3.013,3.985L90.5,95.991l-3.987-3.025a15.692,15.692,0,0,1-2.879,1.192l-.558,4.026Zm-6.263-2h4.393l.63-4.548.652-.165a13.7,13.7,0,0,0,3.6-1.489l.578-.341,3.653,2.771,3.1-3.106-2.763-3.655L91,86a13.7,13.7,0,0,0,1.489-3.6l.165-.652,4.548-.631V76.731l-4.548-.63-.165-.652A13.691,13.691,0,0,0,91,71.85l-.341-.577,2.763-3.654-3.1-3.1-3.654,2.763-.577-.341a13.7,13.7,0,0,0-3.6-1.489l-.652-.165-.63-4.548H76.814l-.63,4.548-.652.165a13.7,13.7,0,0,0-3.6,1.489l-.577.341L67.7,64.519l-3.106,3.1,2.771,3.653-.341.578a13.7,13.7,0,0,0-1.489,3.6l-.165.652-4.548.63v4.393l4.548.631.165.652A13.7,13.7,0,0,0,67.025,86l.341.578-2.772,3.654L67.7,93.343l3.654-2.772.578.341a13.7,13.7,0,0,0,3.6,1.489l.652.165Z" transform="translate(14981.997 2105.063)" fill="#fff"></path>
    <circle id="Ellipse_11" data-name="Ellipse 11" cx="8.214" cy="8.214" r="8.214" transform="translate(15052.793 2175.776)" fill="rgba(0,0,0,0)"></circle>
    <path id="Ellipse_11_-_Outline" data-name="Ellipse 11 - Outline" d="M8.214-1A9.214,9.214,0,1,1-1,8.214,9.225,9.225,0,0,1,8.214-1Zm0,16.429A7.214,7.214,0,1,0,1,8.214,7.222,7.222,0,0,0,8.214,15.429Z" transform="translate(15052.793 2175.776)" fill="#fff"></path>
    <path id="Path_149" data-name="Path 149" d="M70.53,9.366a29.986,29.986,0,0,1,38.323,3.422" transform="translate(14973.365 2150)" fill="rgba(0,0,0,0)"></path>
    <path id="Path_149_-_Outline" data-name="Path 149 - Outline" d="M108.146,13.5A28.986,28.986,0,0,0,71.1,10.187L69.958,8.546a30.953,30.953,0,0,1,39.6,3.535Z" transform="translate(14973.365 2150)" fill="#fff"></path>
    <path id="Path_150" data-name="Path 150" d="M271.718,70.53a29.986,29.986,0,0,1-3.422,38.323" transform="translate(14813.922 2096.364)" fill="rgba(0,0,0,0)"></path>
    <path id="Path_150_-_Outline" data-name="Path 150 - Outline" d="M269,109.56l-1.414-1.414A28.986,28.986,0,0,0,270.9,71.1l1.641-1.144A30.953,30.953,0,0,1,269,109.56Z" transform="translate(14813.922 2096.364)" fill="#fff"></path>
    <path id="Path_151" data-name="Path 151" d="M12.788,49.341A29.986,29.986,0,0,0,9.366,87.664" transform="translate(15027 2113.447)" fill="rgba(0,0,0,0)"></path>
    <path id="Path_151_-_Outline" data-name="Path 151 - Outline" d="M8.546,88.236a30.953,30.953,0,0,1,3.535-39.6L13.5,50.048a28.986,28.986,0,0,0-3.309,37.044Z" transform="translate(15027 2113.447)" fill="#fff"></path>
    <path id="Path_152" data-name="Path 152" d="M49.341,268.3a29.986,29.986,0,0,0,38.323,3.422" transform="translate(14990.447 1936.921)" fill="rgba(0,0,0,0)"></path>
    <path id="Path_152_-_Outline" data-name="Path 152 - Outline" d="M70.533,278.081q-1.292,0-2.587-.108A30.871,30.871,0,0,1,48.634,269l1.414-1.414A28.986,28.986,0,0,0,87.092,270.9l1.144,1.641A30.991,30.991,0,0,1,70.533,278.081Z" transform="translate(14990.447 1936.921)" fill="#fff"></path>
    <path id="Path_153" data-name="Path 153" d="M272.975,241.225l-6.382.375-.375-6.382" transform="translate(14815.596 1963.589)" fill="rgba(0,0,0,0)"></path>
    <path id="Path_153_-_Outline" data-name="Path 153 - Outline" d="M265.653,242.656l-.433-7.38,2-.117.316,5.384,5.384-.316.117,2Z" transform="translate(14815.596 1963.589)" fill="#fff"></path>
    <path id="Path_154" data-name="Path 154" d="M16.426,49.735l6.382-.375.375,6.382" transform="translate(15016.983 2113.432)" fill="rgba(0,0,0,0)"></path>
    <path id="Path_154_-_Outline" data-name="Path 154 - Outline" d="M22.185,55.8l-.316-5.384-5.384.316-.117-2,7.38-.433.433,7.38Z" transform="translate(15016.983 2113.432)" fill="#fff"></path>
    <path id="Path_155" data-name="Path 155" d="M49.735,272.975l-.375-6.382,6.382-.375" transform="translate(14990.433 1938.596)" fill="rgba(0,0,0,0)"></path>
    <path id="Path_155_-_Outline" data-name="Path 155 - Outline" d="M48.736,273.033l-.433-7.38,7.38-.433.117,2-5.384.316.316,5.384Z" transform="translate(14990.433 1938.596)" fill="#fff"></path>
    <path id="Path_156" data-name="Path 156" d="M241.225,16.426l.375,6.382-6.382.375" transform="translate(14840.59 2139.984)" fill="rgba(0,0,0,0)"></path>
    <path id="Path_156_-_Outline" data-name="Path 156 - Outline" d="M235.276,24.181l-.117-2,5.384-.316-.316-5.384,2-.117.433,7.38Z" transform="translate(14840.59 2139.984)" fill="#fff"></path>
  </g>
</svg>
