<?xml version="1.0" encoding="UTF-8"?>
<svg xmlns="http://www.w3.org/2000/svg" width="68.823" height="63.114" viewBox="0 0 68.823 63.114">
  <g id="Group_299" data-name="Group 299" transform="translate(-15050.333 -2282.83)">
    <path id="Path_171" data-name="Path 171" d="M50.088,2.333H7A4.667,4.667,0,0,0,2.333,7V39.736A4.667,4.667,0,0,0,7,44.4h4.127v7.933L20.8,44.4H50.088a4.667,4.667,0,0,0,4.666-4.667V7A4.667,4.667,0,0,0,50.088,2.333Z" transform="translate(15049 2281.497)" fill="rgba(0,0,0,0)"></path>
    <path id="Path_171_-_Outline" data-name="Path 171 - Outline" d="M7,1.333H50.088A5.673,5.673,0,0,1,55.754,7V39.736A5.673,5.673,0,0,1,50.088,45.4H21.16L10.126,54.448V45.4H7a5.673,5.673,0,0,1-5.667-5.667V7A5.673,5.673,0,0,1,7,1.333ZM50.088,43.4a3.671,3.671,0,0,0,3.666-3.667V7a3.671,3.671,0,0,0-3.666-3.666H7A3.671,3.671,0,0,0,3.333,7V39.736A3.671,3.671,0,0,0,7,43.4h5.126v6.82l8.319-6.82Z" transform="translate(15049 2281.497)" fill="#fff"></path>
    <path id="Path_172" data-name="Path 172" d="M85.048,29.332h5.614A4.661,4.661,0,0,1,95.328,34V66.73A4.661,4.661,0,0,1,90.662,71.4H86.538v7.938L76.86,71.4H47.573A4.6,4.6,0,0,1,43.9,69.587" transform="translate(15022.827 2264.496)" fill="rgba(0,0,0,0)"></path>
    <path id="Path_172_-_Outline" data-name="Path 172 - Outline" d="M87.538,81.447,76.5,72.4H47.573a5.567,5.567,0,0,1-4.471-2.2l1.592-1.21A3.582,3.582,0,0,0,47.573,70.4H77.218l8.32,6.824V70.4h5.125a3.67,3.67,0,0,0,3.666-3.666V34a3.67,3.67,0,0,0-3.666-3.666H85.048v-2h5.614A5.672,5.672,0,0,1,96.328,34V66.73A5.672,5.672,0,0,1,90.662,72.4H87.538Z" transform="translate(15022.827 2264.496)" fill="#fff"></path>
  </g>
</svg>
